<svg width="61" height="56" viewBox="0 0 61 56" fill="none" xmlns="http://www.w3.org/2000/svg">
<path fill-rule="evenodd" clip-rule="evenodd" d="M56.9257 25.4208C55.4338 20.0736 54.6812 14.4753 53.9917 9.04453C53.8472 7.87483 54.6538 6.78884 55.7902 6.70529C56.9274 6.53819 57.9674 7.37418 58.1119 8.46033C58.7756 13.724 59.4859 19.1542 60.9221 24.2508C61.2336 25.3369 60.5923 26.5071 59.4892 26.8413C58.3869 27.1755 57.238 26.5069 56.9257 25.4208Z" fill="#F7941D"/>
<path fill-rule="evenodd" clip-rule="evenodd" d="M35.773 34.9448C27.0416 26.3392 19.4342 16.6474 10.4687 8.20884C9.63134 7.45689 9.58648 6.12009 10.3682 5.28459C11.1507 4.4491 12.4665 4.36587 13.3038 5.20137C22.2951 13.6399 29.9274 23.3317 38.6845 31.9373C39.5019 32.7728 39.5135 34.1093 38.7094 34.9448C37.9062 35.6967 36.5904 35.7803 35.773 34.9448Z" fill="#F7941D"/>
<path fill-rule="evenodd" clip-rule="evenodd" d="M8.83499 51.0702C13.8324 51.3209 18.8298 51.571 23.828 51.8217C24.9727 51.8217 25.8565 52.8248 25.8009 53.9945C25.7444 55.1642 24.77 55.9992 23.6245 55.9992C18.6188 55.7485 13.6139 55.4984 8.60904 55.2477C7.46436 55.1642 6.58633 54.1614 6.64863 52.9917C6.71093 51.9056 7.69114 50.9867 8.83499 51.0702Z" fill="#F7941D"/>
</svg>
