<svg width="64" height="64" viewBox="0 0 64 64" fill="none" xmlns="http://www.w3.org/2000/svg">
<path d="M48 34C48 33.735 47.895 33.48 47.707 33.293L47.414 33L47.707 32.707C47.895 32.52 48 32.265 48 32V28.414L59.707 16.707L58.293 15.293L52 21.586L42.414 12L48.707 5.707L47.293 4.293L35.586 16H32C31.735 16 31.48 16.105 31.293 16.293L31 16.586L30.707 16.293L30.328 15.914L26.707 12.293C26.52 12.105 26.265 12 26 12H24.414L16.707 4.293L15.293 5.707L17.586 8L7.99997 17.586L5.70697 15.293L4.29297 16.707L12 24.414V30C12 30.265 12.105 30.52 12.293 30.707L15 33.414V36.586L4.29297 47.293L5.70697 48.707L11 43.414L20.586 53L15.293 58.293L16.707 59.707L27.414 49H31C31.265 49 31.52 48.895 31.707 48.707L32.414 48H35.586L47.293 59.707L48.707 58.293L42.414 52L52 42.414L58.293 48.707L59.707 47.293L48 35.586V34ZM41 13.414L50.586 23L47 26.586L37.414 17L41 13.414ZM35.586 18L46 28.414V31.586L32.414 18H35.586ZM46 34.414V35.586L35.586 46H32.414L27 40.586V39.414L28.293 40.707L29.707 39.293L18.328 27.914C18.117 27.702 18 27.421 18 27.121C18 26.503 18.503 26 19.121 26C19.421 26 19.702 26.117 19.914 26.328L27.293 33.707L28.707 32.293L21.328 24.914C21.117 24.702 21 24.421 21 24.121C21 23.503 21.503 23 22.121 23C22.421 23 22.702 23.117 22.914 23.328L30.293 30.707L31.707 29.293L24.328 21.914C24.117 21.702 24 21.421 24 21.121C24 20.503 24.503 20 25.121 20C25.421 20 25.702 20.117 25.914 20.328L33.293 27.707L34.707 26.293L27.328 18.914C27.117 18.702 27 18.421 27 18.121C27 17.503 27.503 17 28.121 17C28.421 17 28.702 17.117 28.914 17.328L29.293 17.707L46 34.414ZM19 9.414L22.586 13L13 22.586L9.41397 19L19 9.414ZM14 24.414L24.414 14H25.586L26.858 15.272C25.798 15.744 25.054 16.788 25.011 18.011C23.379 18.069 22.069 19.379 22.011 21.011C20.379 21.069 19.069 22.379 19.011 24.011C17.342 24.07 16 25.438 16 27.121C16 27.955 16.325 28.739 16.914 29.328L17.586 30L16 31.586L14 29.586V24.414ZM22 51.586L12.414 42L16 38.414L25.586 48L22 51.586ZM27.414 47L17 36.586V33.414L19 31.414L25 37.414V41C25 41.265 25.105 41.52 25.293 41.707L30.586 47H27.414ZM41 50.586L37.414 47L47 37.414L50.586 41L41 50.586Z" fill="#F7941D"/>
<path d="M46.2922 40.293L44.2925 42.2927L45.7067 43.7069L47.7064 41.7072L46.2922 40.293Z" fill="#F7941D"/>
<path d="M20.7067 45.2929L19.2925 46.7071L21.2922 48.7067L22.7064 47.2925L20.7067 45.2929Z" fill="#F7941D"/>
<path d="M18.2924 12.293L16.2927 14.2927L17.7069 15.7069L19.7066 13.7072L18.2924 12.293Z" fill="#F7941D"/>
<path d="M41.7069 16.2933L40.2927 17.7075L42.2924 19.7071L43.7066 18.2929L41.7069 16.2933Z" fill="#F7941D"/>
</svg>
