<svg width="64" height="64" viewBox="0 0 64 64" fill="none" xmlns="http://www.w3.org/2000/svg">
<path d="M3.21615 11.7627C1.62155 13.3792 1.96231 15.6553 3.23121 16.9382C3.28204 16.9877 8.37837 21.9173 15.5456 29.1744C15.7301 29.3612 15.9711 29.4527 16.2121 29.4527C16.4531 29.4527 16.694 29.3593 16.8785 29.1744C17.2456 28.8027 17.2456 28.1984 16.8785 27.8267C15.7979 26.7325 14.77 25.6974 13.7948 24.7176L16.7863 21.6885C17.1534 21.3168 17.1534 20.7125 16.7863 20.3408C16.4192 19.9691 15.8224 19.9691 15.4552 20.3408L12.4562 23.3775C10.7788 21.7 9.30087 20.236 8.09786 19.0484L14.9036 12.1573C15.2708 11.7856 15.2708 11.1813 14.9036 10.8096C14.5365 10.4378 13.9397 10.4378 13.5726 10.8096L6.74612 17.7216C5.36049 16.3625 4.56225 15.5904 4.54907 15.5771C4.15183 15.1749 3.63033 14.0426 4.54907 13.1123L13.9623 3.58107C14.3257 3.20744 15.2933 2.46591 16.3552 3.53532C16.4022 3.58869 21.1559 9.05582 28.4116 16.4025C28.7788 16.7742 29.3756 16.7742 29.7427 16.4025C30.1098 16.0308 30.1098 15.4265 29.7427 15.0548C22.5321 7.75575 17.8142 2.33057 17.7276 2.23144C15.973 0.458628 13.8569 0.990471 12.6313 2.23144L3.21615 11.7627Z" fill="#F7941D"/>
<path d="M43.1435 47.0283C42.7764 46.6566 42.1796 46.6566 41.8124 47.0283L38.8171 50.0593C37.9041 49.1233 36.9458 48.1435 35.9367 47.1217C35.5696 46.75 34.9728 46.75 34.6057 47.1217C34.2385 47.4934 34.2385 48.0977 34.6057 48.4694C41.579 55.5283 46.4494 60.801 46.5191 60.8772C47.1648 61.533 48.0496 61.8933 49.0098 61.8933C49.9982 61.8933 50.9979 61.5025 51.6173 60.8734L61.0267 51.2335C62.2109 50.0345 62.2787 48.0005 61.1736 46.8777L48.5486 34.0963C48.1814 33.7246 47.5846 33.7246 47.2175 34.0963C46.8504 34.468 46.8504 35.0723 47.2175 35.444L59.8426 48.2254C60.2191 48.6067 60.1475 49.4302 59.6938 49.8896L50.2825 59.5295C50.066 59.7506 49.5746 59.987 49.0098 59.987C48.686 59.987 48.2229 59.9069 47.8727 59.5505C47.8539 59.5295 47.065 58.6774 45.6963 57.2268L52.5567 50.2804C52.9238 49.9087 52.9238 49.3044 52.5567 48.9327C52.1896 48.5609 51.5928 48.5609 51.2257 48.9327L44.3935 55.8504C43.2188 54.6133 41.7785 53.1093 40.1388 51.4165L43.1435 48.3741C43.5106 48.0043 43.5106 47.4019 43.1435 47.0283Z" fill="#F7941D"/>
<path d="M2.26742 61.674C2.44815 61.8608 2.69101 61.96 2.9414 61.96C3.03177 61.96 3.12214 61.9466 3.21062 61.9199L22.0371 56.2412C22.1896 56.1955 22.3251 56.1135 22.4362 55.9991L54.6107 23.2021C54.6559 23.1563 54.6785 23.0973 54.7123 23.0458L61.5953 16.0765C62.1488 15.5142 62.4557 14.7688 62.4557 13.9739C62.4557 13.1809 62.1488 12.4356 61.5953 11.8771L51.7396 1.89975C50.6326 0.778879 48.6992 0.778879 47.5922 1.89975L40.553 9.02722C40.5078 9.07297 40.4833 9.13207 40.4494 9.18544L8.226 41.8147C8.12057 41.9215 8.0415 42.0511 7.99631 42.1941L2.04715 60.7133C1.93795 61.0507 2.02267 61.4186 2.26742 61.674ZM41.2721 11.0478L43.2282 13.0284L14.0038 42.6992L10.7525 41.952L41.2721 11.0478ZM15.1786 44.2071L44.5611 14.3781L49.1472 19.0217L19.4993 48.6563H15.1786V44.2071ZM52.6132 22.533L22.0315 53.7078L20.9452 49.8915L50.4783 20.3694L52.6132 22.533ZM9.51749 43.6218L13.296 44.4911V49.6094C13.296 50.1355 13.7177 50.5625 14.2373 50.5625H19.1774L20.371 54.7563L4.39104 59.5772L9.51749 43.6218ZM48.9251 3.24747C49.3223 2.84525 50.0133 2.84525 50.4105 3.24747L60.2662 13.2267C60.4638 13.4268 60.573 13.6937 60.573 13.9778C60.573 14.2599 60.4638 14.5287 60.2643 14.7307L53.9179 21.1586L42.5787 9.67725L48.9251 3.24747Z" fill="#F7941D"/>
</svg>
