<svg width="64" height="64" viewBox="0 0 64 64" fill="none" xmlns="http://www.w3.org/2000/svg">
<path d="M51.0521 7.79741H40.1135V3.27083C40.1135 2.56895 39.5446 2 38.8427 2H24.832C24.1301 2 23.5612 2.56895 23.5612 3.27083V7.79741H12.2708C11.569 7.79741 11 8.36649 11 9.06825V61.7292C11 62.4309 11.569 63 12.2708 63H51.0522C51.7541 63 52.3231 62.4309 52.3231 61.7292V9.06825C52.3229 8.36649 51.754 7.79741 51.0521 7.79741ZM26.1028 4.54167H37.5719V13.595H26.1028V4.54167ZM24.832 16.1366H38.8427H44.9501V54.6608H19.339V16.1366H24.832ZM49.7814 60.4583H49.7813H13.5417V10.3391H23.5613V13.595H18.0684C17.3665 13.595 16.7975 14.1639 16.7975 14.8658V55.9316C16.7975 56.6334 17.3665 57.2025 18.0684 57.2025H46.221C46.9229 57.2025 47.4919 56.6334 47.4919 55.9316V14.8658C47.4919 14.1639 46.9229 13.595 46.221 13.595H40.1137V10.3391H49.7814V60.4583Z" fill="#F7941D"/>
<path d="M34.0116 7.79742H29.6634C28.9615 7.79742 28.3926 8.3665 28.3926 9.06825C28.3926 9.77013 28.9615 10.3391 29.6634 10.3391H34.0116C34.7135 10.3391 35.2824 9.77 35.2824 9.06825C35.2824 8.3665 34.7135 7.79742 34.0116 7.79742Z" fill="#F7941D"/>
<path d="M23.1017 23.9324L21.1748 25.8613C20.6788 26.3579 20.6792 27.1625 21.1757 27.6585C21.4237 27.9064 21.7488 28.0304 22.0738 28.0304C22.3992 28.0304 22.7247 27.9061 22.9729 27.6576L24.8979 25.7305L26.8231 27.6576C27.0713 27.9061 27.3968 28.0304 27.7222 28.0304C28.0472 28.0304 28.3723 27.9063 28.6203 27.6585C29.1169 27.1625 29.1174 26.3579 28.6212 25.8613L26.6943 23.9324L28.6212 22.0034C29.1172 21.5069 29.1169 20.7023 28.6203 20.2062C28.1238 19.7101 27.3191 19.7105 26.8231 20.2071L24.8979 22.1342L22.9729 20.2071C22.4769 19.7106 21.6722 19.7103 21.1757 20.2062C20.6792 20.7022 20.6786 21.5068 21.1748 22.0034L23.1017 23.9324Z" fill="#F7941D"/>
<path d="M42.8922 40.1855C42.3961 39.6892 41.5912 39.689 41.095 40.1852L39.1674 42.1122L37.2398 40.1852C36.7435 39.6891 35.9388 39.6892 35.4426 40.1855C34.9464 40.6819 34.9466 41.4866 35.4429 41.9828L37.3699 43.9093L35.4429 45.8356C34.9466 46.3318 34.9464 47.1364 35.4426 47.633C35.6908 47.8812 36.016 48.0053 36.3413 48.0053C36.6665 48.0053 36.9917 47.8813 37.2398 47.6332L39.1674 45.7062L41.095 47.6332C41.3432 47.8813 41.6682 48.0053 41.9935 48.0053C42.3188 48.0053 42.6441 47.8812 42.8922 47.633C43.3884 47.1366 43.3882 46.3319 42.8919 45.8356L40.9648 43.9093L42.8919 41.9828C43.3883 41.4866 43.3884 40.6819 42.8922 40.1855Z" fill="#F7941D"/>
<path d="M26.695 43.9092L28.6209 41.9824C29.1172 41.4861 29.1169 40.6814 28.6207 40.1851C28.1244 39.689 27.3197 39.6891 26.8234 40.1854L24.898 42.1114L22.9726 40.1854C22.4763 39.6891 21.6717 39.6888 21.1753 40.1851C20.679 40.6812 20.6788 41.4859 21.1751 41.9824L23.101 43.9092L21.1751 45.8357C20.6788 46.3323 20.679 47.1369 21.1753 47.6331C21.4235 47.8811 21.7486 48.0052 22.0738 48.0052C22.3992 48.0052 22.7245 47.881 22.9726 47.6328L24.898 45.7068L26.8234 47.6328C27.0716 47.881 27.3968 48.0052 27.7222 48.0052C28.0474 48.0052 28.3725 47.8811 28.6207 47.6331C29.117 47.1369 29.1172 46.3323 28.6209 45.8357L26.695 43.9092Z" fill="#F7941D"/>
<path d="M33.777 31.5182C31.2984 33.113 27.7633 33.8623 23.5537 33.6861C22.8512 33.6581 22.2601 34.2011 22.2306 34.9025C22.2012 35.6038 22.7458 36.1961 23.4471 36.2254C23.8818 36.2437 24.3101 36.2528 24.733 36.2528C28.9161 36.2528 32.499 35.3629 35.1525 33.6554C38.4629 31.5251 40.329 28.1285 40.5597 23.8243L41.2839 24.6107C41.5345 24.8829 41.8762 25.0208 42.2191 25.0208C42.5267 25.0208 42.8354 24.9097 43.0797 24.6848C43.596 24.2093 43.6292 23.4054 43.1536 22.8891L40.0888 19.5606C39.8488 19.3 39.5112 19.1514 39.157 19.1505C39.156 19.1505 39.155 19.1505 39.1539 19.1505C38.8009 19.1505 38.4636 19.2974 38.2232 19.5559L35.1442 22.8676C34.6664 23.3816 34.6956 24.1858 35.2097 24.6637C35.7236 25.1417 36.5278 25.1121 37.0057 24.5983L38.0332 23.4933C38.0328 23.4997 38.0317 23.5059 38.0314 23.5122C37.8837 27.103 36.4524 29.7966 33.777 31.5182ZM39.1495 22.2927L39.1586 22.3026C39.1518 22.3035 39.1449 22.3041 39.1381 22.305L39.1495 22.2927Z" fill="#F7941D"/>
</svg>
