<svg width="64" height="64" viewBox="0 0 64 64" fill="none" xmlns="http://www.w3.org/2000/svg">
<path d="M14.5135 19.5246C13.8973 18.648 13.864 18.1352 14.3636 17.7217C14.8466 17.3082 15.3795 17.4406 16.079 18.1352C16.5786 18.6314 17.0782 19.1276 17.5778 19.6238C18.1773 20.2358 18.1773 20.7154 17.5612 21.3274C17.0282 21.8567 16.4953 22.386 15.979 22.8987C15.3962 23.4776 14.8632 23.5934 14.3969 23.2295C13.914 22.8656 13.8973 22.3694 14.3803 21.5424C9.61726 22.3529 6.11994 24.7842 4.18809 29.1176C2.08971 33.8315 2.82248 38.2972 6.02002 42.3991C6.02002 42.2171 6.02002 42.0352 6.02002 41.8367C6.02002 39.2069 6.02002 36.5936 6.02002 33.9638C6.02002 33.0541 6.3531 32.7233 7.25241 32.7233C23.7397 32.7233 40.2271 32.7233 56.7144 32.7233C57.6637 32.7233 57.9801 33.0376 57.9801 33.9969C57.9801 36.3951 57.9801 38.7934 57.9801 41.1917C57.9801 41.3901 57.9801 41.5886 57.9801 41.9525C59.1292 40.5962 59.862 39.2069 60.345 37.7018C62.51 30.9701 58.8628 23.8249 52.1346 21.5424C51.1853 21.2282 50.8189 20.7651 51.0354 20.1365C51.2519 19.4915 51.8348 19.3096 52.8174 19.6734C58.4298 21.7244 61.8605 25.7104 62.7931 31.549C63.6091 36.5605 61.9937 40.9105 58.3631 44.5327C58.1466 44.7477 57.9968 45.1281 57.9968 45.4258C57.9801 50.6689 57.9801 55.9286 57.9801 61.1717C57.9801 62.1972 57.6803 62.4949 56.6478 62.4949C40.2271 62.4949 23.8064 62.4949 7.38564 62.4949C6.31979 62.4949 6.03667 62.2137 6.03667 61.1386C6.03667 56.1601 6.03668 51.1817 6.05333 46.1867C6.05333 45.6739 5.9201 45.3266 5.55371 44.9462C1.37359 40.6955 -0.00867842 35.6178 1.73998 29.9612C3.50529 24.3046 7.51887 20.8974 13.381 19.69C13.7141 19.6569 14.0805 19.6073 14.5135 19.5246ZM15.9624 37.7514C15.3295 40.3978 13.6975 42.0186 11.0495 42.6306C11.0495 43.838 11.0495 45.0289 11.0495 46.2859C11.4325 46.4182 11.8156 46.5505 12.1986 46.6994C12.8481 46.931 13.1479 47.4272 12.9813 47.973C12.8148 48.5353 12.2486 48.8 11.5658 48.6015C11.3992 48.5519 11.2327 48.5188 11.0495 48.4692C11.0495 49.9081 11.0495 51.2809 11.0495 52.6537C13.7308 53.2822 15.3462 54.9197 15.9624 57.5164C26.6875 57.5164 37.3793 57.5164 48.071 57.5164C48.3209 56.2594 48.8871 55.1843 49.7864 54.3077C50.6691 53.4311 51.7682 52.9184 52.9673 52.6537C52.9673 51.0328 52.9673 49.4781 52.9673 47.9068C51.8015 48.1714 50.669 48.4195 49.4866 48.6842C49.5699 48.7834 49.6199 48.8496 49.6698 48.8992C50.1028 49.4615 50.1195 49.9908 49.6698 50.3878C49.2368 50.7847 48.6706 50.7351 48.171 50.2554C47.5381 49.6435 46.9219 49.0315 46.3224 48.4195C45.9227 48.006 45.8228 47.5098 46.2225 47.0798C46.9053 46.3355 47.6214 45.6078 48.3875 44.9296C48.987 44.4004 49.9363 44.7973 49.9862 45.5582C50.0029 45.8559 49.853 46.1867 49.7531 46.6332C50.7856 46.3355 51.8015 46.0544 52.8007 45.7401C52.884 45.707 53.0006 45.5582 53.0006 45.4589C53.0172 44.4996 53.0172 43.5403 53.0172 42.6141C50.3027 41.969 48.7039 40.3481 48.071 37.7348C37.346 37.7514 26.6542 37.7514 15.9624 37.7514ZM55.965 46.4844C55.2156 46.6994 54.9158 47.0633 54.9491 47.8406C55.0157 49.7262 54.9824 51.5952 54.9658 53.4807C54.9658 54.2085 54.6493 54.5392 53.9332 54.6054C51.6183 54.7873 50.1694 56.2263 49.9862 58.5253C49.9196 59.2365 49.5866 59.5508 48.8538 59.5508C37.6124 59.5508 26.3877 59.5508 15.1463 59.5508C14.3969 59.5508 14.0638 59.22 14.0139 58.4592C13.8473 56.2594 12.3485 54.7543 10.1335 54.5889C9.33414 54.5227 9.03437 54.2085 9.01772 53.4145C9.01772 51.7275 9.01772 50.0239 9.01772 48.3368C9.01772 47.4437 8.96776 47.3775 8.05179 47.1129C8.05179 51.5786 8.05179 56.0609 8.05179 60.5101C24.0395 60.5101 39.9939 60.5101 55.965 60.5101C55.965 55.8128 55.965 51.1651 55.965 46.4844ZM9.01772 45.1447C9.01772 44.0365 9.01772 42.9614 9.01772 41.9029C9.01772 41.0593 9.31749 40.7616 10.1668 40.6955C12.3318 40.5301 13.8473 39.0084 14.0139 36.8582C14.0805 36.0643 14.3969 35.7501 15.1963 35.7501C26.421 35.7501 37.6291 35.7501 48.8538 35.7501C49.6032 35.7501 49.9363 36.0643 50.0029 36.8252C50.1694 39.0415 51.6683 40.5301 53.8832 40.6955C54.6826 40.7616 54.9824 41.0759 54.9991 41.8698C54.9991 42.7464 54.9991 43.623 54.9991 44.6154C55.6153 44.2681 56.0483 44.02 56.0316 43.2426C55.9816 40.6458 56.0149 38.0326 56.0149 35.4358C56.0149 35.2208 56.0149 35.0058 56.0149 34.8073C39.9773 34.8073 24.0229 34.8073 8.05179 34.8073C8.05179 37.7679 8.0851 40.6955 8.03514 43.6065C7.98518 44.3508 8.16837 44.8469 9.01772 45.1447Z" fill="#F7941D"/>
<path d="M31.9828 28.7868C24.2055 28.7868 17.9936 22.5679 18.0102 14.8107C18.0102 7.21896 24.3054 1.00001 31.9828 1.00001C39.8101 1.01654 46.0054 7.20242 45.9887 15.0092C45.9721 22.6009 39.6769 28.7868 31.9828 28.7868ZM43.8404 15.9189C42.225 15.9189 40.6262 15.9189 38.9941 15.9189C38.7943 19.4253 38.2114 22.7994 36.3461 25.9089C40.926 24.3211 43.8237 19.5576 43.8404 15.9189ZM27.6362 25.8923C25.7543 22.7663 25.2047 19.3757 24.9882 15.9023C23.3228 15.9023 21.7241 15.9023 20.1419 15.9023C20.2252 19.9546 23.4227 24.503 27.6362 25.8923ZM38.9941 13.8679C40.6428 13.8679 42.2416 13.8679 43.8404 13.8679C44.0902 10.1961 39.7269 4.37412 36.3961 3.92754C38.2114 6.9874 38.7943 10.3615 38.9941 13.8679ZM27.6195 3.911C23.9224 4.82069 19.6756 10.5104 20.1752 13.8845C21.7574 13.8845 23.3561 13.8845 24.9882 13.8845C25.2047 10.3615 25.7709 6.98739 27.6195 3.911ZM27.0533 15.9023C27.1199 17.8706 27.3697 19.7396 27.9193 21.5589C28.3689 23.0475 28.9352 24.4865 30.001 25.6608C30.2675 25.9585 30.5839 26.1901 30.9503 26.5209C30.9503 22.8821 30.9503 19.3922 30.9503 15.9023C29.6346 15.9023 28.3689 15.9023 27.0533 15.9023ZM36.9956 13.8845C36.8624 12.7432 36.7791 11.6516 36.6126 10.5765C36.2629 8.50905 35.7133 6.50775 34.4976 4.75453C34.1312 4.22526 33.6149 3.77868 33.1819 3.28249C33.1319 3.31557 33.0986 3.36519 33.0487 3.39827C33.0487 6.88816 33.0487 10.378 33.0487 13.8679C34.3477 13.8845 35.6134 13.8845 36.9956 13.8845ZM33.032 15.9189C33.032 19.4418 33.032 22.9152 33.032 26.3885C33.0986 26.4051 33.1653 26.4216 33.2319 26.4547C36.2296 23.5933 36.6293 19.8057 36.9956 15.9189C35.63 15.9189 34.3643 15.9189 33.032 15.9189ZM27.0533 13.8514C28.3856 13.8514 29.6846 13.8514 30.9669 13.8514C30.9669 10.3284 30.9669 6.85508 30.9669 3.36519C28.8852 4.40719 27.1865 8.97217 27.0533 13.8514Z" fill="#F7941D"/>
<path d="M38.9949 47.6588C38.9949 51.4961 35.8806 54.589 32.0169 54.589C28.0866 54.589 25.0056 51.4795 25.0056 47.5596C25.0223 43.7555 28.1532 40.6791 32.0502 40.6956C35.8973 40.7121 38.9949 43.8051 38.9949 47.6588ZM36.9964 47.6423C36.9964 44.9629 34.7481 42.6969 32.0502 42.6804C29.3023 42.6638 27.0041 44.9298 27.0041 47.6754C27.0041 50.3548 29.2857 52.6042 31.9836 52.6042C34.7148 52.6042 36.9964 50.3548 36.9964 47.6423Z" fill="#F7941D"/>
</svg>
