<svg width="73" height="67" viewBox="0 0 73 67" fill="none" xmlns="http://www.w3.org/2000/svg">
<g clip-path="url(#clip0_10_163)">
<path fill-rule="evenodd" clip-rule="evenodd" d="M68.1242 30.4142C66.3388 24.0167 65.4382 17.3187 64.6131 10.8212C64.4401 9.42174 65.4054 8.12243 66.7653 8.02247C68.1262 7.82255 69.3708 8.82275 69.5438 10.1222C70.3381 16.4198 71.188 22.9167 72.9068 29.0144C73.2796 30.3139 72.5122 31.7139 71.192 32.1138C69.8728 32.5136 68.498 31.7137 68.1242 30.4142Z" fill="#F7941D"/>
<path fill-rule="evenodd" clip-rule="evenodd" d="M42.8102 41.809C32.3613 31.513 23.2573 19.9175 12.528 9.82136C11.526 8.92171 11.4723 7.32233 12.4077 6.32272C13.3442 5.3231 14.9188 5.22353 15.9209 6.22314C26.681 16.3192 35.8148 27.9148 46.2945 38.2108C47.2727 39.2104 47.2866 40.8094 46.3244 41.809C45.3631 42.7087 43.7884 42.8086 42.8102 41.809Z" fill="#F7941D"/>
<path fill-rule="evenodd" clip-rule="evenodd" d="M10.573 61.1019C16.5535 61.4018 22.5339 61.7011 28.5154 62.001C29.8853 62.001 30.943 63.2011 30.8764 64.6006C30.8088 66 29.6427 66.999 28.2719 66.999C22.2814 66.6992 16.292 66.3999 10.3026 66.1C8.9327 66 7.88194 64.8003 7.95649 63.4008C8.03105 62.1013 9.20409 61.0019 10.573 61.1019Z" fill="#F7941D"/>
</g>
<defs>
<clipPath id="clip0_10_163">
<rect width="67" height="73" fill="white" transform="matrix(-4.37114e-08 1 1 4.37114e-08 0 0)"/>
</clipPath>
</defs>
</svg>
